<?xml version="1.0" encoding="UTF-8"?>
<!--Generator: Apple Native CoreSVG 123-->
<!DOCTYPE svg
PUBLIC "-//W3C//DTD SVG 1.1//EN"
       "http://www.w3.org/Graphics/SVG/1.1/DTD/svg11.dtd">
<svg version="1.1" xmlns="http://www.w3.org/2000/svg" xmlns:xlink="http://www.w3.org/1999/xlink" width="3300" height="2200">
 <!--glyph: "uni10079A.medium", point size: 100.000000, font version: "Version 15.0d7e11", template writer version: "5"-->
 <g id="Notes">
  <rect height="2200" id="artboard" style="fill:white;opacity:1" width="3300" x="0" y="0"/>
  <line id="" style="fill:none;stroke:black;opacity:1;stroke-width:0.5;" x1="263" x2="3036" y1="292" y2="292"/>
  <text style="stroke:none;fill:black;font-family:-apple-system,&quot;SF Pro Display&quot;,&quot;SF Pro Text&quot;,Helvetica,sans-serif;font-weight:bold;" transform="matrix(1 0 0 1 263 322)">Weight/Scale Variations</text>
  <text style="stroke:none;fill:black;font-family:-apple-system,&quot;SF Pro Display&quot;,&quot;SF Pro Text&quot;,Helvetica,sans-serif;text-anchor:middle;" transform="matrix(1 0 0 1 559.711 322)">Ultralight</text>
  <text style="stroke:none;fill:black;font-family:-apple-system,&quot;SF Pro Display&quot;,&quot;SF Pro Text&quot;,Helvetica,sans-serif;text-anchor:middle;" transform="matrix(1 0 0 1 856.422 322)">Thin</text>
  <text style="stroke:none;fill:black;font-family:-apple-system,&quot;SF Pro Display&quot;,&quot;SF Pro Text&quot;,Helvetica,sans-serif;text-anchor:middle;" transform="matrix(1 0 0 1 1153.13 322)">Light</text>
  <text style="stroke:none;fill:black;font-family:-apple-system,&quot;SF Pro Display&quot;,&quot;SF Pro Text&quot;,Helvetica,sans-serif;text-anchor:middle;" transform="matrix(1 0 0 1 1449.84 322)">Regular</text>
  <text style="stroke:none;fill:black;font-family:-apple-system,&quot;SF Pro Display&quot;,&quot;SF Pro Text&quot;,Helvetica,sans-serif;text-anchor:middle;" transform="matrix(1 0 0 1 1746.56 322)">Medium</text>
  <text style="stroke:none;fill:black;font-family:-apple-system,&quot;SF Pro Display&quot;,&quot;SF Pro Text&quot;,Helvetica,sans-serif;text-anchor:middle;" transform="matrix(1 0 0 1 2043.27 322)">Semibold</text>
  <text style="stroke:none;fill:black;font-family:-apple-system,&quot;SF Pro Display&quot;,&quot;SF Pro Text&quot;,Helvetica,sans-serif;text-anchor:middle;" transform="matrix(1 0 0 1 2339.98 322)">Bold</text>
  <text style="stroke:none;fill:black;font-family:-apple-system,&quot;SF Pro Display&quot;,&quot;SF Pro Text&quot;,Helvetica,sans-serif;text-anchor:middle;" transform="matrix(1 0 0 1 2636.69 322)">Heavy</text>
  <text style="stroke:none;fill:black;font-family:-apple-system,&quot;SF Pro Display&quot;,&quot;SF Pro Text&quot;,Helvetica,sans-serif;text-anchor:middle;" transform="matrix(1 0 0 1 2933.4 322)">Black</text>
  <line id="" style="fill:none;stroke:black;opacity:1;stroke-width:0.5;" x1="263" x2="3036" y1="1903" y2="1903"/>
  <g id="" transform="matrix(1 0 0 1 263 1933)">
   <path d="M 9.24805 0.830078 C 13.5547 0.830078 17.1387 -2.74414 17.1387 -7.05078 C 17.1387 -11.3574 13.5449 -14.9316 9.23828 -14.9316 C 4.94141 -14.9316 1.36719 -11.3574 1.36719 -7.05078 C 1.36719 -2.74414 4.95117 0.830078 9.24805 0.830078 Z M 9.24805 -0.654297 C 5.70312 -0.654297 2.87109 -3.49609 2.87109 -7.05078 C 2.87109 -10.6055 5.69336 -13.4473 9.23828 -13.4473 C 12.793 -13.4473 15.6348 -10.6055 15.6445 -7.05078 C 15.6543 -3.49609 12.8027 -0.654297 9.24805 -0.654297 Z M 9.22852 -3.42773 C 9.69727 -3.42773 9.9707 -3.74023 9.9707 -4.25781 L 9.9707 -6.31836 L 12.1973 -6.31836 C 12.6953 -6.31836 13.0371 -6.57227 13.0371 -7.04102 C 13.0371 -7.51953 12.7148 -7.7832 12.1973 -7.7832 L 9.9707 -7.7832 L 9.9707 -10.0098 C 9.9707 -10.5273 9.69727 -10.8496 9.22852 -10.8496 C 8.75977 -10.8496 8.50586 -10.5078 8.50586 -10.0098 L 8.50586 -7.7832 L 6.29883 -7.7832 C 5.78125 -7.7832 5.44922 -7.51953 5.44922 -7.04102 C 5.44922 -6.57227 5.80078 -6.31836 6.29883 -6.31836 L 8.50586 -6.31836 L 8.50586 -4.25781 C 8.50586 -3.75977 8.75977 -3.42773 9.22852 -3.42773 Z"/>
  </g>
  <g id="" transform="matrix(1 0 0 1 281.506 1933)">
   <path d="M 11.709 2.91016 C 17.1582 2.91016 21.6699 -1.60156 21.6699 -7.05078 C 21.6699 -12.4902 17.1484 -17.0117 11.6992 -17.0117 C 6.25977 -17.0117 1.74805 -12.4902 1.74805 -7.05078 C 1.74805 -1.60156 6.26953 2.91016 11.709 2.91016 Z M 11.709 1.25 C 7.09961 1.25 3.41797 -2.44141 3.41797 -7.05078 C 3.41797 -11.6504 7.08984 -15.3516 11.6992 -15.3516 C 16.3086 -15.3516 20 -11.6504 20.0098 -7.05078 C 20.0195 -2.44141 16.3184 1.25 11.709 1.25 Z M 11.6895 -2.41211 C 12.207 -2.41211 12.5195 -2.77344 12.5195 -3.33984 L 12.5195 -6.23047 L 15.5762 -6.23047 C 16.123 -6.23047 16.5039 -6.51367 16.5039 -7.03125 C 16.5039 -7.55859 16.1426 -7.86133 15.5762 -7.86133 L 12.5195 -7.86133 L 12.5195 -10.9277 C 12.5195 -11.5039 12.207 -11.8555 11.6895 -11.8555 C 11.1719 -11.8555 10.8789 -11.4844 10.8789 -10.9277 L 10.8789 -7.86133 L 7.83203 -7.86133 C 7.26562 -7.86133 6.89453 -7.55859 6.89453 -7.03125 C 6.89453 -6.51367 7.28516 -6.23047 7.83203 -6.23047 L 10.8789 -6.23047 L 10.8789 -3.33984 C 10.8789 -2.79297 11.1719 -2.41211 11.6895 -2.41211 Z"/>
  </g>
  <g id="" transform="matrix(1 0 0 1 304.924 1933)">
   <path d="M 14.9707 5.67383 C 21.9336 5.67383 27.6953 -0.078125 27.6953 -7.04102 C 27.6953 -14.0039 21.9238 -19.7559 14.9609 -19.7559 C 8.00781 -19.7559 2.25586 -14.0039 2.25586 -7.04102 C 2.25586 -0.078125 8.01758 5.67383 14.9707 5.67383 Z M 14.9707 3.85742 C 8.93555 3.85742 4.08203 -1.00586 4.08203 -7.04102 C 4.08203 -13.0762 8.92578 -17.9395 14.9609 -17.9395 C 21.0059 -17.9395 25.8594 -13.0762 25.8691 -7.04102 C 25.8789 -1.00586 21.0156 3.85742 14.9707 3.85742 Z M 14.9512 -1.06445 C 15.5176 -1.06445 15.8691 -1.45508 15.8691 -2.06055 L 15.8691 -6.13281 L 20.1074 -6.13281 C 20.6934 -6.13281 21.1133 -6.46484 21.1133 -7.02148 C 21.1133 -7.59766 20.7227 -7.93945 20.1074 -7.93945 L 15.8691 -7.93945 L 15.8691 -12.1875 C 15.8691 -12.8027 15.5176 -13.1934 14.9512 -13.1934 C 14.3848 -13.1934 14.0625 -12.7832 14.0625 -12.1875 L 14.0625 -7.93945 L 9.83398 -7.93945 C 9.21875 -7.93945 8.80859 -7.59766 8.80859 -7.02148 C 8.80859 -6.46484 9.23828 -6.13281 9.83398 -6.13281 L 14.0625 -6.13281 L 14.0625 -2.06055 C 14.0625 -1.47461 14.3848 -1.06445 14.9512 -1.06445 Z"/>
  </g>
  <text style="stroke:none;fill:black;font-family:-apple-system,&quot;SF Pro Display&quot;,&quot;SF Pro Text&quot;,Helvetica,sans-serif;font-weight:bold;" transform="matrix(1 0 0 1 263 1953)">Design Variations</text>
  <text style="stroke:none;fill:black;font-family:-apple-system,&quot;SF Pro Display&quot;,&quot;SF Pro Text&quot;,Helvetica,sans-serif;" transform="matrix(1 0 0 1 263 1971)">Symbols are supported in up to nine weights and three scales.</text>
  <text style="stroke:none;fill:black;font-family:-apple-system,&quot;SF Pro Display&quot;,&quot;SF Pro Text&quot;,Helvetica,sans-serif;" transform="matrix(1 0 0 1 263 1989)">For optimal layout with text and other symbols, vertically align</text>
  <text style="stroke:none;fill:black;font-family:-apple-system,&quot;SF Pro Display&quot;,&quot;SF Pro Text&quot;,Helvetica,sans-serif;" transform="matrix(1 0 0 1 263 2007)">symbols with the adjacent text.</text>
  <rect height="14" id="" style="fill:#00AEEF;stroke:none;opacity:0.4;" width="3" x="776" y="1919"/>
  <g id="" transform="matrix(1 0 0 1 779 1933)">
   <path d="M 10.5273 0 L 12.373 0 L 7.17773 -14.0918 L 5.43945 -14.0918 L 0.244141 0 L 2.08984 0 L 3.50586 -4.0332 L 9.11133 -4.0332 Z M 6.2793 -11.9531 L 6.33789 -11.9531 L 8.59375 -5.52734 L 4.02344 -5.52734 Z"/>
  </g>
  <rect height="14" id="" style="fill:#00AEEF;stroke:none;opacity:0.4;" width="3" x="791.617" y="1919"/>
  <text style="stroke:none;fill:black;font-family:-apple-system,&quot;SF Pro Display&quot;,&quot;SF Pro Text&quot;,Helvetica,sans-serif;font-weight:bold;" transform="matrix(1 0 0 1 776 1953)">Margins</text>
  <text style="stroke:none;fill:black;font-family:-apple-system,&quot;SF Pro Display&quot;,&quot;SF Pro Text&quot;,Helvetica,sans-serif;" transform="matrix(1 0 0 1 776 1971)">Leading and trailing margins on the left and right side of each symbol</text>
  <text style="stroke:none;fill:black;font-family:-apple-system,&quot;SF Pro Display&quot;,&quot;SF Pro Text&quot;,Helvetica,sans-serif;" transform="matrix(1 0 0 1 776 1989)">can be adjusted by modifying the width of the blue rectangles.</text>
  <text style="stroke:none;fill:black;font-family:-apple-system,&quot;SF Pro Display&quot;,&quot;SF Pro Text&quot;,Helvetica,sans-serif;" transform="matrix(1 0 0 1 776 2007)">Modifications are automatically applied proportionally to all</text>
  <text style="stroke:none;fill:black;font-family:-apple-system,&quot;SF Pro Display&quot;,&quot;SF Pro Text&quot;,Helvetica,sans-serif;" transform="matrix(1 0 0 1 776 2025)">scales and weights.</text>
  <g id="" transform="matrix(1 0 0 1 1289 1933)">
   <path d="M 2.83203 3.11523 L 4.375 4.6582 C 5.22461 5.48828 6.19141 5.41992 7.06055 4.46289 L 17.2754 -6.66016 C 17.7051 -6.36719 18.0957 -6.37695 18.5645 -6.47461 L 19.6094 -6.68945 L 20.3027 -5.99609 L 20.2539 -5.47852 C 20.1855 -4.95117 20.3516 -4.53125 20.8496 -4.0332 L 21.6602 -3.22266 C 22.168 -2.71484 22.8223 -2.68555 23.3008 -3.16406 L 26.5527 -6.41602 C 27.0312 -6.89453 27.0117 -7.54883 26.5039 -8.05664 L 25.6836 -8.87695 C 25.1855 -9.375 24.7754 -9.55078 24.2383 -9.47266 L 23.7109 -9.41406 L 23.0566 -10.0781 L 23.3398 -11.2207 C 23.4863 -11.7871 23.3398 -12.2559 22.7148 -12.8613 L 20.3027 -15.2539 C 16.7578 -18.7793 12.2266 -18.6719 9.11133 -15.5371 C 8.69141 -15.1074 8.64258 -14.5215 8.91602 -14.0918 C 9.15039 -13.7207 9.62891 -13.4961 10.2734 -13.6621 C 11.7871 -14.043 13.3008 -13.9258 14.7852 -12.9199 L 14.1602 -11.3379 C 13.9258 -10.752 13.9453 -10.2734 14.1797 -9.83398 L 3.01758 0.439453 C 2.08008 1.30859 1.97266 2.25586 2.83203 3.11523 Z M 10.6738 -15.1465 C 13.3398 -17.1387 16.6504 -16.8262 19.0527 -14.4141 L 21.6797 -11.8066 C 21.9141 -11.5723 21.9434 -11.3867 21.8848 -11.0938 L 21.5039 -9.53125 L 23.0762 -7.95898 L 24.043 -8.04688 C 24.3262 -8.07617 24.4141 -8.05664 24.6387 -7.83203 L 25.2637 -7.20703 L 22.5098 -4.46289 L 21.8848 -5.07812 C 21.6602 -5.30273 21.6406 -5.40039 21.6699 -5.68359 L 21.7578 -6.64062 L 20.1953 -8.20312 L 18.5742 -7.89062 C 18.291 -7.83203 18.1445 -7.83203 17.9102 -8.07617 L 15.7324 -10.2539 C 15.5078 -10.4883 15.4785 -10.625 15.6055 -10.9473 L 16.5527 -13.2227 C 14.9512 -14.7559 12.8418 -15.6055 10.8008 -14.9512 C 10.7129 -14.9219 10.6445 -14.9414 10.6152 -14.9805 C 10.5859 -15.0293 10.5859 -15.0781 10.6738 -15.1465 Z M 4.10156 2.41211 C 3.61328 1.91406 3.78906 1.61133 4.12109 1.30859 L 15.0781 -8.80859 L 16.3086 -7.57812 L 6.15234 3.34961 C 5.84961 3.68164 5.46875 3.7793 5.06836 3.37891 Z"/>
  </g>
  <text style="stroke:none;fill:black;font-family:-apple-system,&quot;SF Pro Display&quot;,&quot;SF Pro Text&quot;,Helvetica,sans-serif;font-weight:bold;" transform="matrix(1 0 0 1 1289 1953)">Exporting</text>
  <text style="stroke:none;fill:black;font-family:-apple-system,&quot;SF Pro Display&quot;,&quot;SF Pro Text&quot;,Helvetica,sans-serif;" transform="matrix(1 0 0 1 1289 1971)">Symbols should be outlined when exporting to ensure the</text>
  <text style="stroke:none;fill:black;font-family:-apple-system,&quot;SF Pro Display&quot;,&quot;SF Pro Text&quot;,Helvetica,sans-serif;" transform="matrix(1 0 0 1 1289 1989)">design is preserved when submitting to Xcode.</text>
  <text id="template-version" style="stroke:none;fill:black;font-family:-apple-system,&quot;SF Pro Display&quot;,&quot;SF Pro Text&quot;,Helvetica,sans-serif;text-anchor:end;" transform="matrix(1 0 0 1 3036 1933)">Template v.1.0</text>
  <text style="stroke:none;fill:black;font-family:-apple-system,&quot;SF Pro Display&quot;,&quot;SF Pro Text&quot;,Helvetica,sans-serif;text-anchor:end;" transform="matrix(1 0 0 1 3036 1951)">Generated from lock.shield.fill</text>
  <text style="stroke:none;fill:black;font-family:-apple-system,&quot;SF Pro Display&quot;,&quot;SF Pro Text&quot;,Helvetica,sans-serif;text-anchor:end;" transform="matrix(1 0 0 1 3036 1969)">Typeset at 100 points</text>
  <text style="stroke:none;fill:black;font-family:-apple-system,&quot;SF Pro Display&quot;,&quot;SF Pro Text&quot;,Helvetica,sans-serif;" transform="matrix(1 0 0 1 263 726)">Small</text>
  <text style="stroke:none;fill:black;font-family:-apple-system,&quot;SF Pro Display&quot;,&quot;SF Pro Text&quot;,Helvetica,sans-serif;" transform="matrix(1 0 0 1 263 1156)">Medium</text>
  <text style="stroke:none;fill:black;font-family:-apple-system,&quot;SF Pro Display&quot;,&quot;SF Pro Text&quot;,Helvetica,sans-serif;" transform="matrix(1 0 0 1 263 1586)">Large</text>
 </g>
 <g id="Guides">
  <g id="H-reference" style="fill:#27AAE1;stroke:none;" transform="matrix(1 0 0 1 339 696)">
   <path d="M 54.9316 0 L 57.666 0 L 30.5664 -70.459 L 28.0762 -70.459 L 0.976562 0 L 3.66211 0 L 12.9395 -24.4629 L 45.7031 -24.4629 Z M 29.1992 -67.0898 L 29.4434 -67.0898 L 44.8242 -26.709 L 13.8184 -26.709 Z"/>
  </g>
  <line id="Baseline-S" style="fill:none;stroke:#27AAE1;opacity:1;stroke-width:0.577;" x1="263" x2="3036" y1="696" y2="696"/>
  <line id="Capline-S" style="fill:none;stroke:#27AAE1;opacity:1;stroke-width:0.577;" x1="263" x2="3036" y1="625.541" y2="625.541"/>
  <g id="H-reference" style="fill:#27AAE1;stroke:none;" transform="matrix(1 0 0 1 339 1126)">
   <path d="M 54.9316 0 L 57.666 0 L 30.5664 -70.459 L 28.0762 -70.459 L 0.976562 0 L 3.66211 0 L 12.9395 -24.4629 L 45.7031 -24.4629 Z M 29.1992 -67.0898 L 29.4434 -67.0898 L 44.8242 -26.709 L 13.8184 -26.709 Z"/>
  </g>
  <line id="Baseline-M" style="fill:none;stroke:#27AAE1;opacity:1;stroke-width:0.577;" x1="263" x2="3036" y1="1126" y2="1126"/>
  <line id="Capline-M" style="fill:none;stroke:#27AAE1;opacity:1;stroke-width:0.577;" x1="263" x2="3036" y1="1055.54" y2="1055.54"/>
  <g id="H-reference" style="fill:#27AAE1;stroke:none;" transform="matrix(1 0 0 1 339 1556)">
   <path d="M 54.9316 0 L 57.666 0 L 30.5664 -70.459 L 28.0762 -70.459 L 0.976562 0 L 3.66211 0 L 12.9395 -24.4629 L 45.7031 -24.4629 Z M 29.1992 -67.0898 L 29.4434 -67.0898 L 44.8242 -26.709 L 13.8184 -26.709 Z"/>
  </g>
  <line id="Baseline-L" style="fill:none;stroke:#27AAE1;opacity:1;stroke-width:0.577;" x1="263" x2="3036" y1="1556" y2="1556"/>
  <line id="Capline-L" style="fill:none;stroke:#27AAE1;opacity:1;stroke-width:0.577;" x1="263" x2="3036" y1="1485.54" y2="1485.54"/>
  <rect height="119.336" id="left-margin" style="fill:#00AEEF;stroke:none;opacity:0.4;" width="18.7988" x="1391.1" y="1030.79"/>
  <rect height="119.336" id="right-margin" style="fill:#00AEEF;stroke:none;opacity:0.4;" width="18.7988" x="1489.79" y="1030.79"/>
 </g>
 <g id="Symbols">
  <g id="Black-L" transform="matrix(1 0 0 1 2857.91 1556)">
   <path d="M 75.4883 30.1758 C 76.9043 30.1758 78.7598 29.5898 80.4688 28.7598 C 117.529 10.8887 130.713 -0.341797 130.713 -23.0469 L 130.713 -67.8711 C 130.713 -78.0273 127.637 -82.5684 118.506 -86.377 C 113.428 -88.5742 90.8691 -95.8496 86.2793 -97.2168 C 82.959 -98.1934 78.7109 -98.877 75.4883 -98.877 C 72.2168 -98.877 67.9688 -98.1934 64.6484 -97.2168 C 60.0586 -95.9473 37.5488 -88.5742 32.4219 -86.377 C 23.3398 -82.5684 20.2637 -78.0273 20.2637 -67.8711 L 20.2637 -23.0469 C 20.2637 -0.341797 33.6426 10.5469 70.459 28.7598 C 72.168 29.5898 74.0723 30.1758 75.4883 30.1758 Z M 52.9785 -15.0879 L 52.9785 -38.3789 C 52.9785 -42.334 54.3945 -44.6777 57.3242 -45.5078 L 57.3242 -51.6113 C 57.3242 -63.6719 64.6973 -71.8262 75.4883 -71.8262 C 86.3281 -71.8262 93.7012 -63.6719 93.7012 -51.6113 L 93.7012 -45.5078 C 96.582 -44.6777 97.998 -42.334 97.998 -38.3789 L 97.998 -15.0879 C 97.998 -9.86328 95.6543 -7.42188 90.8691 -7.42188 L 60.1562 -7.42188 C 55.3223 -7.42188 52.9785 -9.86328 52.9785 -15.0879 Z M 68.0176 -45.8496 L 83.0078 -45.8984 L 83.0078 -52.0996 C 83.0078 -57.8125 80.127 -61.377 75.4883 -61.377 C 70.8984 -61.377 68.0176 -57.7148 68.0176 -52.0996 Z"/>
  </g>
  <g id="Heavy-L" transform="matrix(1 0 0 1 2561.42 1556)">
   <path d="M 75.293 29.6875 C 76.6113 29.6875 78.418 29.1504 80.0781 28.3203 C 116.748 10.1074 129.492 -0.488281 129.492 -23.0469 L 129.492 -68.457 C 129.492 -77.7832 126.514 -81.7383 118.262 -85.2051 C 112.402 -87.6953 90.1855 -95.0684 84.7168 -96.8262 C 81.7871 -97.6562 78.1738 -98.291 75.293 -98.291 C 72.3633 -98.291 68.75 -97.6562 65.8203 -96.8262 C 60.3516 -95.166 38.1836 -87.6465 32.2754 -85.2051 C 24.0234 -81.7871 21.0938 -77.7832 21.0938 -68.457 L 21.0938 -23.0469 C 21.0938 -0.488281 34.082 9.61914 70.459 28.3203 C 72.1191 29.1504 73.9258 29.6875 75.293 29.6875 Z M 52.7832 -14.502 L 52.7832 -38.1836 C 52.7832 -42.2363 54.2969 -44.5312 57.373 -45.2637 L 57.373 -51.8066 C 57.373 -63.6719 64.6484 -71.6797 75.293 -71.6797 C 85.9375 -71.6797 93.2129 -63.6719 93.2129 -51.8066 L 93.2129 -45.2637 C 96.2402 -44.5312 97.7539 -42.2363 97.7539 -38.1836 L 97.7539 -14.502 C 97.7539 -9.375 95.459 -7.03125 90.7227 -7.03125 L 59.8633 -7.03125 C 55.127 -7.03125 52.7832 -9.375 52.7832 -14.502 Z M 66.9434 -45.5566 L 83.6426 -45.6055 L 83.6426 -52.2949 C 83.6426 -58.4473 80.3711 -62.3535 75.293 -62.3535 C 70.2148 -62.3535 66.9434 -58.3984 66.9434 -52.2949 Z"/>
  </g>
  <g id="Bold-L" transform="matrix(1 0 0 1 2264.93 1556)">
   <path d="M 75.0488 29.1504 C 76.3184 29.1504 78.0273 28.6133 79.6387 27.832 C 115.869 9.27734 128.125 -0.683594 128.125 -22.998 L 128.125 -69.1406 C 128.125 -77.5391 125.293 -80.8594 117.969 -83.8867 C 111.23 -86.6699 89.4043 -94.2383 82.959 -96.3379 C 80.4688 -97.0703 77.5391 -97.6074 75.0488 -97.6074 C 72.5586 -97.6074 69.5801 -97.0703 67.0898 -96.3379 C 60.6445 -94.2383 38.8672 -86.6699 32.1289 -83.8867 C 24.8047 -80.9082 21.9727 -77.5391 21.9727 -69.1406 L 21.9727 -22.998 C 21.9727 -0.683594 34.5703 8.59375 70.459 27.832 C 72.0703 28.6621 73.7793 29.1504 75.0488 29.1504 Z M 52.6367 -13.8672 L 52.6367 -37.9883 C 52.6367 -42.1387 54.1992 -44.3359 57.4707 -45.0195 L 57.4707 -52.002 C 57.4707 -63.6719 64.5996 -71.5332 75.0488 -71.5332 C 85.5469 -71.5332 92.627 -63.6719 92.627 -52.002 L 92.627 -45.0195 C 95.8984 -44.3848 97.4609 -42.1387 97.4609 -37.9883 L 97.4609 -13.8672 C 97.4609 -8.83789 95.2148 -6.54297 90.625 -6.54297 L 59.5215 -6.54297 C 54.8828 -6.54297 52.6367 -8.83789 52.6367 -13.8672 Z M 65.7715 -45.2148 L 84.375 -45.2637 L 84.375 -52.5391 C 84.375 -59.1797 80.6641 -63.4766 75.0488 -63.4766 C 69.4336 -63.4766 65.7715 -59.1309 65.7715 -52.5391 Z"/>
  </g>
  <g id="Semibold-L" transform="matrix(1 0 0 1 1968.39 1556)">
   <path d="M 74.9023 28.7598 C 76.0742 28.7598 77.7344 28.2715 79.2969 27.4414 C 115.283 8.64258 127.197 -0.830078 127.197 -22.9492 L 127.197 -69.5801 C 127.197 -77.3438 124.463 -80.2246 117.773 -83.0078 C 110.449 -85.9863 88.916 -93.6035 81.7871 -95.9961 C 79.5898 -96.6797 77.0996 -97.1191 74.9023 -97.1191 C 72.6562 -97.1191 70.166 -96.6309 68.0176 -95.9961 C 60.8398 -93.6523 39.3555 -85.9375 32.0312 -83.0078 C 25.3418 -80.2734 22.6074 -77.3438 22.6074 -69.5801 L 22.6074 -22.9492 C 22.6074 -0.830078 34.9121 7.86133 70.459 27.4414 C 72.0215 28.3203 73.6816 28.7598 74.9023 28.7598 Z M 52.4902 -13.4277 L 52.4902 -37.8418 C 52.4902 -42.041 54.1504 -44.2383 57.5684 -44.8242 L 57.5684 -52.1973 C 57.5684 -63.7207 64.5508 -71.4355 74.9023 -71.4355 C 85.2539 -71.4355 92.2363 -63.7207 92.2363 -52.1973 L 92.2363 -44.8242 C 95.6543 -44.2871 97.2656 -42.0898 97.2656 -37.8418 L 97.2656 -13.4277 C 97.2656 -8.49609 95.0684 -6.20117 90.5273 -6.20117 L 59.2773 -6.20117 C 54.6875 -6.20117 52.4902 -8.49609 52.4902 -13.4277 Z M 64.9414 -44.9707 L 84.8633 -45.0195 L 84.8633 -52.6855 C 84.8633 -59.668 80.9082 -64.2578 74.9023 -64.2578 C 68.8965 -64.2578 64.9414 -59.668 64.9414 -52.6855 Z"/>
  </g>
  <g id="Medium-L" transform="matrix(1 0 0 1 1671.8 1556)">
   <path d="M 74.7559 28.4668 C 75.9277 28.4668 77.5391 27.9785 79.0527 27.1973 C 114.844 8.20312 126.465 -0.927734 126.465 -22.9492 L 126.465 -69.9707 C 126.465 -77.1973 123.779 -79.7363 117.578 -82.3242 C 109.814 -85.4492 88.5254 -93.1641 80.8594 -95.752 C 78.9062 -96.3867 76.7578 -96.7773 74.7559 -96.7773 C 72.7539 -96.7773 70.6543 -96.3379 68.7012 -95.752 C 60.9863 -93.1641 39.6973 -85.4492 31.9336 -82.3242 C 25.7324 -79.834 23.0469 -77.1973 23.0469 -69.9707 L 23.0469 -22.9492 C 23.0469 -0.927734 35.2051 7.32422 70.459 27.1973 C 71.9727 28.0273 73.584 28.4668 74.7559 28.4668 Z M 52.3926 -13.0859 L 52.3926 -37.6953 C 52.3926 -41.9922 54.0527 -44.1895 57.6172 -44.6289 L 57.6172 -52.2949 C 57.6172 -63.7207 64.5508 -71.3867 74.7559 -71.3867 C 85.0098 -71.3867 91.9434 -63.7207 91.9434 -52.2949 L 91.9434 -44.6777 C 95.459 -44.2383 97.1191 -42.041 97.1191 -37.6953 L 97.1191 -13.0859 C 97.1191 -8.20312 94.9707 -5.95703 90.4297 -5.95703 L 59.082 -5.95703 C 54.5898 -5.95703 52.3926 -8.20312 52.3926 -13.0859 Z M 64.3066 -44.7754 L 85.2539 -44.8242 L 85.2539 -52.832 C 85.2539 -60.0586 81.0547 -64.8438 74.7559 -64.8438 C 68.5059 -64.8438 64.3066 -60.0586 64.3066 -52.832 Z"/>
  </g>
  <g id="Regular-L" transform="matrix(1 0 0 1 1375.24 1556)">
   <path d="M 74.6094 28.125 C 75.7324 28.125 77.2461 27.6367 78.7598 26.8555 C 114.258 7.61719 125.537 -1.07422 125.537 -22.9004 L 125.537 -70.4102 C 125.537 -77.002 122.949 -79.1504 117.383 -81.4453 C 109.033 -84.7656 87.9883 -92.5781 79.6387 -95.4102 C 77.9785 -95.9473 76.3184 -96.3379 74.6094 -96.3379 C 72.9004 -96.3379 71.2402 -95.8984 69.5801 -95.4102 C 61.2305 -92.5781 40.1855 -84.7168 31.8359 -81.4453 C 26.2695 -79.248 23.6816 -77.002 23.6816 -70.4102 L 23.6816 -22.9004 C 23.6816 -1.07422 35.5469 6.64062 70.459 26.8555 C 71.9238 27.6855 73.4863 28.125 74.6094 28.125 Z M 52.2461 -12.6465 L 52.2461 -37.5488 C 52.2461 -41.8945 54.0039 -44.043 57.666 -44.4824 L 57.666 -52.4414 C 57.666 -63.7207 64.502 -71.2891 74.6094 -71.2891 C 84.7168 -71.2891 91.5527 -63.7207 91.5527 -52.4414 L 91.5527 -44.5312 C 95.2148 -44.0918 96.9238 -41.9434 96.9238 -37.5488 L 96.9238 -12.6465 C 96.9238 -7.8125 94.8242 -5.61523 90.3809 -5.61523 L 58.8379 -5.61523 C 54.3945 -5.61523 52.2461 -7.8125 52.2461 -12.6465 Z M 63.5254 -44.5801 L 85.6934 -44.6289 L 85.6934 -52.9785 C 85.6934 -60.5469 81.25 -65.5762 74.6094 -65.5762 C 67.9688 -65.5762 63.5254 -60.5469 63.5254 -52.9785 Z"/>
  </g>
  <g id="Light-L" transform="matrix(1 0 0 1 1080.11 1556)">
   <path d="M 72.998 27.7832 C 74.2676 27.7832 75.8301 27.1973 77.1484 26.4648 C 112.158 6.54297 123.096 -1.2207 123.096 -22.0215 L 123.096 -69.4336 C 123.096 -76.2207 120.85 -78.418 114.844 -80.8105 C 105.176 -84.5703 87.5488 -91.3086 77.8809 -94.6289 C 76.2207 -95.2148 74.6582 -95.5566 72.998 -95.5566 C 71.3867 -95.5566 69.8242 -95.166 68.1641 -94.6289 C 58.4961 -91.1621 40.8691 -84.5703 31.2012 -80.8105 C 25.1953 -78.4668 22.9492 -76.2207 22.9492 -69.4336 L 22.9492 -22.0215 C 22.9492 -1.2207 34.3262 5.71289 68.8965 26.4648 C 70.2148 27.1973 71.7773 27.7832 72.998 27.7832 Z M 50.3906 -12.5 L 50.3906 -38.0371 C 50.3906 -42.7246 52.3438 -44.873 56.4453 -45.166 L 56.4453 -53.6621 C 56.4453 -64.5508 63.0859 -71.7773 72.998 -71.7773 C 82.9102 -71.7773 89.5996 -64.5508 89.5996 -53.6621 L 89.5996 -45.166 C 93.6523 -44.9219 95.6543 -42.7246 95.6543 -38.0371 L 95.6543 -12.5 C 95.6543 -7.51953 93.4082 -5.32227 88.8672 -5.32227 L 57.1777 -5.32227 C 52.5879 -5.32227 50.3906 -7.51953 50.3906 -12.5 Z M 61.2793 -45.2148 L 84.7656 -45.2148 L 84.7656 -54.0039 C 84.7656 -61.8652 80.0293 -67.041 72.998 -67.041 C 66.0156 -67.041 61.2793 -61.8652 61.2793 -54.0039 Z"/>
  </g>
  <g id="Thin-L" transform="matrix(1 0 0 1 785.499 1556)">
   <path d="M 70.8984 27.3438 C 72.3145 27.3438 73.9258 26.5625 75 25.9277 C 109.424 5.07812 119.873 -1.36719 119.873 -20.8496 L 119.873 -68.1641 C 119.873 -75.0977 118.066 -77.4414 111.475 -79.9805 C 100 -84.3262 87.0117 -89.5996 75.4883 -93.6035 C 73.877 -94.1895 72.4609 -94.5801 70.8984 -94.5801 C 69.3359 -94.5801 67.9688 -94.1406 66.3574 -93.6035 C 54.8828 -89.3066 41.7969 -84.3262 30.3711 -79.9805 C 23.7793 -77.4902 21.9727 -75.0977 21.9727 -68.1641 L 21.9727 -20.8496 C 21.9727 -1.36719 32.7148 4.54102 66.7969 25.9277 C 67.9199 26.5625 69.5312 27.3438 70.8984 27.3438 Z M 47.9492 -12.3047 L 47.9492 -38.623 C 47.9492 -43.75 50.1953 -45.9961 54.7852 -46.0449 L 54.7852 -55.2734 C 54.7852 -65.625 61.2793 -72.4609 70.8984 -72.4609 C 80.5664 -72.4609 87.0605 -65.625 87.0605 -55.2734 L 87.0605 -46.0449 C 91.6504 -45.9961 93.8965 -43.75 93.8965 -38.623 L 93.8965 -12.3047 C 93.8965 -7.12891 91.6016 -4.88281 86.8652 -4.88281 L 54.9316 -4.88281 C 50.2441 -4.88281 47.9492 -7.12891 47.9492 -12.3047 Z M 58.3496 -46.0449 L 83.4961 -46.0449 L 83.4961 -55.3223 C 83.4961 -63.5254 78.418 -68.9453 70.8984 -68.9453 C 63.3789 -68.9453 58.3496 -63.5254 58.3496 -55.3223 Z"/>
  </g>
  <g id="Ultralight-L" transform="matrix(1 0 0 1 489.887 1556)">
   <path d="M 69.8242 27.0996 C 71.3379 27.0996 72.9492 26.2695 73.9258 25.6348 C 108.057 4.3457 118.213 -1.46484 118.213 -20.2637 L 118.213 -67.5293 C 118.213 -74.5605 116.65 -76.9043 109.717 -79.541 C 97.4121 -84.1797 86.7188 -88.7207 74.2676 -93.0664 C 72.6562 -93.6523 71.3379 -94.043 69.8242 -94.043 C 68.3105 -94.043 66.9922 -93.6523 65.3809 -93.0664 C 53.0762 -88.3789 42.2852 -84.1797 29.9316 -79.541 C 23.0469 -77.002 21.4355 -74.5605 21.4355 -67.5293 L 21.4355 -20.2637 C 21.4355 -1.46484 31.9336 3.90625 65.7227 25.6348 C 66.748 26.2695 68.3594 27.0996 69.8242 27.0996 Z M 46.6797 -12.207 L 46.6797 -38.9648 C 46.6797 -44.2871 49.0723 -46.582 53.9551 -46.5332 L 53.9551 -56.1035 C 53.9551 -66.1621 60.3516 -72.8516 69.8242 -72.8516 C 79.3457 -72.8516 85.7422 -66.1621 85.7422 -56.1035 L 85.7422 -46.4844 C 90.5762 -46.5332 93.0176 -44.2871 93.0176 -38.9648 L 93.0176 -12.207 C 93.0176 -6.93359 90.625 -4.6875 85.8887 -4.6875 L 53.8086 -4.6875 C 49.0234 -4.6875 46.6797 -6.93359 46.6797 -12.207 Z M 56.8359 -46.4844 L 82.8125 -46.4844 L 82.8125 -56.0059 C 82.8125 -64.4043 77.5879 -69.9219 69.8242 -69.9219 C 62.0605 -69.9219 56.8359 -64.4043 56.8359 -56.0059 Z"/>
  </g>
  <g id="Black-M" transform="matrix(1 0 0 1 2875.49 1126)">
   <path d="M 57.9102 15.9668 C 59.1797 15.9668 60.7422 15.3809 62.0605 14.7461 C 90.9668 0.976562 101.611 -8.00781 101.611 -25.3906 L 101.611 -59.2285 C 101.611 -68.2617 99.2676 -72.6074 90.8691 -76.123 C 87.207 -77.6855 71.0938 -82.6172 68.0176 -83.4473 C 64.9414 -84.3262 60.8887 -84.9609 57.9102 -84.9609 C 54.9316 -84.9609 50.8789 -84.3262 47.8027 -83.4473 C 44.7266 -82.5684 28.6133 -77.6855 25 -76.123 C 16.5527 -72.6074 14.209 -68.2617 14.209 -59.2285 L 14.209 -25.3906 C 14.209 -8.00781 24.8047 1.02539 53.7598 14.7461 C 55.0781 15.3809 56.6406 15.9668 57.9102 15.9668 Z M 40.2344 -20.3125 L 40.2344 -38.1836 C 40.2344 -41.3086 41.3574 -43.1641 43.6035 -43.8965 L 43.6035 -48.3398 C 43.6035 -57.666 49.4141 -64.0137 57.9102 -64.0137 C 66.4551 -64.0137 72.2656 -57.666 72.2656 -48.3398 L 72.2656 -43.8477 C 74.4629 -43.1641 75.5859 -41.3086 75.5859 -38.1836 L 75.5859 -20.3125 C 75.5859 -16.0645 73.6328 -14.1113 69.7266 -14.1113 L 46.1426 -14.1113 C 42.1875 -14.1113 40.2344 -16.0645 40.2344 -20.3125 Z M 52.9297 -44.2383 L 62.9395 -44.2383 L 62.9395 -48.5352 C 62.9395 -52.4902 61.0352 -54.9316 57.9102 -54.9316 C 54.834 -54.9316 52.9297 -52.4414 52.9297 -48.5352 Z"/>
  </g>
  <g id="Heavy-M" transform="matrix(1 0 0 1 2578.58 1126)">
   <path d="M 58.1055 15.4785 C 59.2773 15.4785 60.7422 14.9902 62.0117 14.3555 C 90.6738 0.439453 100.928 -8.1543 100.928 -25.5859 L 100.928 -60.1074 C 100.928 -68.2129 98.584 -71.9238 91.2109 -75 C 87.1094 -76.7578 70.459 -82.0801 66.7969 -83.2031 C 64.1113 -83.9355 60.6934 -84.5215 58.1055 -84.5215 C 55.5176 -84.5215 52.0996 -83.9355 49.4141 -83.2031 C 45.752 -82.0801 29.1504 -76.7578 25 -75 C 17.627 -71.9238 15.2832 -68.2129 15.2832 -60.1074 L 15.2832 -25.5859 C 15.2832 -8.1543 25.6348 0.244141 54.1992 14.3555 C 55.4688 14.9902 56.9824 15.4785 58.1055 15.4785 Z M 40.5762 -19.7266 L 40.5762 -37.8418 C 40.5762 -40.9668 41.6992 -42.7734 44.043 -43.457 L 44.043 -48.1934 C 44.043 -57.4707 49.7559 -63.7695 58.1055 -63.7695 C 66.5039 -63.7695 72.2168 -57.4707 72.2168 -48.1934 L 72.2168 -43.4082 C 74.5117 -42.8223 75.6348 -40.9668 75.6348 -37.8418 L 75.6348 -19.7266 C 75.6348 -15.5762 73.7793 -13.7207 70.0195 -13.7207 L 46.2402 -13.7207 C 42.4316 -13.7207 40.5762 -15.5762 40.5762 -19.7266 Z M 52.3438 -43.75 L 63.916 -43.75 L 63.916 -48.5352 C 63.916 -52.8809 61.6699 -55.6152 58.1055 -55.6152 C 54.5898 -55.6152 52.3438 -52.832 52.3438 -48.5352 Z"/>
  </g>
  <g id="Bold-M" transform="matrix(1 0 0 1 2281.65 1126)">
   <path d="M 58.3496 14.9902 C 59.3262 14.9902 60.7422 14.5508 62.0117 13.916 C 90.3809 -0.195312 100.146 -8.34961 100.146 -25.7812 L 100.146 -61.1328 C 100.146 -68.1641 97.9004 -71.1426 91.6504 -73.7305 C 86.9629 -75.7324 69.7754 -81.4941 65.3809 -82.8613 C 63.1836 -83.5449 60.498 -83.9844 58.3496 -83.9844 C 56.1523 -83.9844 53.4668 -83.4961 51.2695 -82.8613 C 46.875 -81.543 29.6875 -75.6836 25 -73.7305 C 18.7988 -71.1426 16.5039 -68.1641 16.5039 -61.1328 L 16.5039 -25.7812 C 16.5039 -8.34961 26.5137 -0.634766 54.6387 13.916 C 55.9082 14.5996 57.3242 14.9902 58.3496 14.9902 Z M 40.918 -19.043 L 40.918 -37.5 C 40.918 -40.625 42.0898 -42.3828 44.5312 -42.9688 L 44.5312 -48.0957 C 44.5312 -57.2754 50.0977 -63.4277 58.3496 -63.4277 C 66.6016 -63.4277 72.168 -57.2754 72.168 -48.0957 L 72.168 -42.9688 C 74.5605 -42.4316 75.7324 -40.625 75.7324 -37.5 L 75.7324 -19.043 C 75.7324 -15.0879 73.9746 -13.2812 70.3125 -13.2812 L 46.3867 -13.2812 C 42.7246 -13.2812 40.918 -15.0879 40.918 -19.043 Z M 51.709 -43.1641 L 64.9902 -43.1641 L 64.9902 -48.4863 C 64.9902 -53.3203 62.3535 -56.4453 58.3496 -56.4453 C 54.2969 -56.4453 51.709 -53.2715 51.709 -48.4863 Z"/>
  </g>
  <g id="Semibold-M" transform="matrix(1 0 0 1 1984.8 1126)">
   <path d="M 58.4961 14.6484 C 59.4238 14.6484 60.7422 14.2578 62.0117 13.623 C 90.1367 -0.634766 99.6094 -8.44727 99.6094 -25.9277 L 99.6094 -61.8164 C 99.6094 -68.1152 97.3633 -70.6055 91.9434 -72.9004 C 86.8652 -75 69.2871 -81.1035 64.4531 -82.666 C 62.5977 -83.252 60.3516 -83.6426 58.4961 -83.6426 C 56.5918 -83.6426 54.3945 -83.2031 52.5391 -82.666 C 47.6562 -81.1523 30.0781 -74.9512 25.0488 -72.9004 C 19.5801 -70.6543 17.334 -68.1152 17.334 -61.8164 L 17.334 -25.9277 C 17.334 -8.44727 27.1484 -1.2207 54.9805 13.623 C 56.25 14.3066 57.5684 14.6484 58.4961 14.6484 Z M 41.1621 -18.6035 L 41.1621 -37.207 C 41.1621 -40.3809 42.3828 -42.0898 44.8242 -42.627 L 44.8242 -47.998 C 44.8242 -57.1289 50.3418 -63.2324 58.4961 -63.2324 C 66.6016 -63.2324 72.1191 -57.1289 72.1191 -47.998 L 72.1191 -42.627 C 74.6094 -42.1387 75.7812 -40.4297 75.7812 -37.207 L 75.7812 -18.6035 C 75.7812 -14.7461 74.0723 -12.9883 70.5566 -12.9883 L 46.4355 -12.9883 C 42.8711 -12.9883 41.1621 -14.7461 41.1621 -18.6035 Z M 51.2695 -42.7734 L 65.7227 -42.8223 L 65.7227 -48.4375 C 65.7227 -53.6133 62.8418 -56.9824 58.4961 -56.9824 C 54.1504 -56.9824 51.2695 -53.6133 51.2695 -48.4375 Z"/>
  </g>
  <g id="Medium-M" transform="matrix(1 0 0 1 1687.96 1126)">
   <path d="M 58.5938 14.4043 C 59.4727 14.4043 60.7422 14.0625 62.0117 13.4277 C 89.9902 -0.976562 99.2188 -8.54492 99.2188 -26.0742 L 99.2188 -62.3535 C 99.2188 -68.1152 97.0215 -70.2148 92.1387 -72.2168 C 86.8164 -74.4629 68.9453 -80.7617 63.7207 -82.5195 C 62.1094 -83.0078 60.2539 -83.3496 58.5938 -83.3496 C 56.9336 -83.3496 55.0781 -83.0078 53.4668 -82.5195 C 48.2422 -80.8594 30.3711 -74.4141 25.0488 -72.2168 C 20.2148 -70.2637 17.9688 -68.1152 17.9688 -62.3535 L 17.9688 -26.0742 C 17.9688 -8.54492 27.6367 -1.66016 55.2246 13.4277 C 56.4453 14.1113 57.7148 14.4043 58.5938 14.4043 Z M 41.3574 -18.2617 L 41.3574 -37.0117 C 41.3574 -40.1855 42.5781 -41.8945 45.1172 -42.334 L 45.1172 -47.9492 C 45.1172 -56.9824 50.5371 -63.0859 58.5938 -63.0859 C 66.6504 -63.0859 72.1191 -56.9824 72.1191 -47.9492 L 72.1191 -42.3828 C 74.6582 -41.9434 75.8301 -40.2344 75.8301 -37.0117 L 75.8301 -18.2617 C 75.8301 -14.502 74.1699 -12.7441 70.7031 -12.7441 L 46.5332 -12.7441 C 43.0176 -12.7441 41.3574 -14.502 41.3574 -18.2617 Z M 50.9277 -42.4805 L 66.2598 -42.5293 L 66.2598 -48.4375 C 66.2598 -53.8574 63.2324 -57.373 58.5938 -57.373 C 54.0039 -57.373 50.9277 -53.8574 50.9277 -48.4375 Z"/>
  </g>
  <g id="Regular-M" transform="matrix(1 0 0 1 1391.1 1126)">
   <path d="M 58.7402 14.0625 C 59.5215 14.0625 60.7422 13.7695 61.9629 13.1348 C 89.7461 -1.41602 98.6816 -8.69141 98.6816 -26.2207 L 98.6816 -63.0371 C 98.6816 -68.0664 96.5332 -69.6777 92.4316 -71.3867 C 86.7188 -73.7305 68.457 -80.3711 62.793 -82.3242 C 61.4746 -82.7637 60.1074 -83.0078 58.7402 -83.0078 C 57.373 -83.0078 56.0059 -82.7148 54.7363 -82.3242 C 49.0234 -80.4688 30.7617 -73.6816 25.0488 -71.3867 C 20.9961 -69.7266 18.7988 -68.0664 18.7988 -63.0371 L 18.7988 -26.2207 C 18.7988 -8.69141 28.2227 -2.24609 55.5176 13.1348 C 56.7871 13.8184 57.959 14.0625 58.7402 14.0625 Z M 41.6016 -17.8223 L 41.6016 -36.7676 C 41.6016 -39.9414 42.8223 -41.6016 45.4102 -41.9922 L 45.4102 -47.8516 C 45.4102 -56.8359 50.7812 -62.8906 58.7402 -62.8906 C 66.6992 -62.8906 72.0703 -56.8359 72.0703 -47.8516 L 72.0703 -42.041 C 74.707 -41.6504 75.9277 -39.9902 75.9277 -36.7676 L 75.9277 -17.8223 C 75.9277 -14.1602 74.3164 -12.4512 70.8984 -12.4512 L 46.582 -12.4512 C 43.2129 -12.4512 41.6016 -14.1602 41.6016 -17.8223 Z M 50.4883 -42.0898 L 66.9922 -42.1387 L 66.9922 -48.3887 C 66.9922 -54.1504 63.6719 -57.959 58.7402 -57.959 C 53.8086 -57.959 50.4883 -54.1504 50.4883 -48.3887 Z"/>
  </g>
  <g id="Light-M" transform="matrix(1 0 0 1 1095.81 1126)">
   <path d="M 57.3242 13.7695 C 58.2031 13.7695 59.4238 13.3301 60.5469 12.7441 C 87.8906 -2.39258 96.5332 -8.78906 96.5332 -25.3906 L 96.5332 -62.1582 C 96.5332 -67.334 94.6289 -69.043 90.1367 -70.8008 C 83.252 -73.584 68.0664 -79.248 61.1816 -81.5918 C 59.8633 -82.0312 58.6426 -82.3242 57.3242 -82.3242 C 56.0059 -82.3242 54.7363 -82.0312 53.4668 -81.5918 C 46.582 -79.1992 31.3965 -73.5352 24.4629 -70.8008 C 20.0195 -69.0918 18.1152 -67.334 18.1152 -62.1582 L 18.1152 -25.3906 C 18.1152 -8.78906 27.1484 -3.07617 54.1016 12.7441 C 55.2246 13.3789 56.4453 13.7695 57.3242 13.7695 Z M 39.9414 -17.6758 L 39.9414 -37.207 C 39.9414 -40.6738 41.3574 -42.334 44.2871 -42.627 L 44.2871 -48.9746 C 44.2871 -57.5684 49.5605 -63.3301 57.3242 -63.3301 C 65.0879 -63.3301 70.3125 -57.5684 70.3125 -48.9746 L 70.3125 -42.627 C 73.291 -42.3828 74.707 -40.7227 74.707 -37.207 L 74.707 -17.6758 C 74.707 -13.916 73.0469 -12.207 69.5801 -12.207 L 45.0684 -12.207 C 41.6016 -12.207 39.9414 -13.916 39.9414 -17.6758 Z M 48.4863 -42.6758 L 66.1133 -42.7246 L 66.1133 -49.3164 C 66.1133 -55.2734 62.5977 -59.2285 57.3242 -59.2285 C 52.0508 -59.2285 48.4863 -55.2734 48.4863 -49.3164 Z"/>
  </g>
  <g id="Thin-M" transform="matrix(1 0 0 1 800.978 1126)">
   <path d="M 55.4199 13.3301 C 56.4941 13.3301 57.7148 12.793 58.6426 12.2559 C 85.4492 -3.66211 93.6035 -8.93555 93.6035 -24.3652 L 93.6035 -61.0352 C 93.6035 -66.3574 92.1387 -68.1641 87.1094 -70.0684 C 78.6621 -73.3398 67.5781 -77.7344 59.0332 -80.7129 C 57.7637 -81.1523 56.6406 -81.4453 55.4199 -81.4453 C 54.1992 -81.4453 53.0762 -81.1035 51.8066 -80.7129 C 43.3594 -77.5391 32.2266 -73.3398 23.7305 -70.0684 C 18.75 -68.2129 17.2363 -66.3574 17.2363 -61.0352 L 17.2363 -24.3652 C 17.2363 -8.93555 25.7324 -4.15039 52.2461 12.2559 C 53.125 12.793 54.3945 13.3301 55.4199 13.3301 Z M 37.6953 -17.5293 L 37.6953 -37.7441 C 37.6953 -41.6016 39.4043 -43.3594 42.8223 -43.4082 L 42.8223 -50.3906 C 42.8223 -58.5449 47.9004 -63.9648 55.4199 -63.9648 C 62.9395 -63.9648 68.0176 -58.5449 68.0176 -50.3906 L 68.0176 -43.4082 C 71.4844 -43.3594 73.1445 -41.6016 73.1445 -37.7441 L 73.1445 -17.5293 C 73.1445 -13.5742 71.3867 -11.8164 67.7734 -11.8164 L 43.0664 -11.8164 C 39.4531 -11.8164 37.6953 -13.5742 37.6953 -17.5293 Z M 45.8496 -43.457 L 64.9902 -43.457 L 64.9902 -50.5371 C 64.9902 -56.7871 61.1328 -60.9375 55.4199 -60.9375 C 49.707 -60.9375 45.8496 -56.7871 45.8496 -50.5371 Z"/>
  </g>
  <g id="Ultralight-M" transform="matrix(1 0 0 1 505.243 1126)">
   <path d="M 54.4434 13.1348 C 55.6152 13.1348 56.8359 12.5 57.666 12.0117 C 84.1797 -4.3457 92.1387 -9.0332 92.1387 -23.8281 L 92.1387 -60.4492 C 92.1387 -65.8691 90.8203 -67.6758 85.5957 -69.6777 C 76.2695 -73.1934 67.2852 -76.9531 57.959 -80.2246 C 56.6895 -80.6641 55.6641 -80.957 54.4434 -80.957 C 53.2715 -80.957 52.2461 -80.6641 50.9766 -80.2246 C 41.6992 -76.709 32.6172 -73.1934 23.3398 -69.6777 C 18.1152 -67.7734 16.7969 -65.8691 16.7969 -60.4492 L 16.7969 -23.8281 C 16.7969 -9.0332 25 -4.6875 51.2695 12.0117 C 52.0996 12.5 53.3203 13.1348 54.4434 13.1348 Z M 36.5723 -17.4316 L 36.5723 -38.0371 C 36.5723 -42.0898 38.3789 -43.8477 42.0898 -43.8477 L 42.0898 -51.1719 C 42.0898 -59.0332 47.0703 -64.2578 54.4434 -64.2578 C 61.8652 -64.2578 66.8457 -59.0332 66.8457 -51.1719 L 66.8457 -43.8477 C 70.5566 -43.8477 72.3633 -42.0898 72.3633 -38.0371 L 72.3633 -17.4316 C 72.3633 -13.3789 70.5566 -11.6211 66.8945 -11.6211 L 42.041 -11.6211 C 38.3789 -11.6211 36.5723 -13.3789 36.5723 -17.4316 Z M 44.5312 -43.8477 L 64.4043 -43.8477 L 64.4043 -51.123 C 64.4043 -57.5684 60.4004 -61.8164 54.4434 -61.8164 C 48.5352 -61.8164 44.5312 -57.5684 44.5312 -51.123 Z"/>
  </g>
  <g id="Black-S" transform="matrix(1 0 0 1 2887.99 696)">
   <path d="M 45.4102 4.83398 C 46.3867 4.83398 47.6074 4.39453 48.6328 3.90625 C 71.2891 -6.88477 79.5898 -13.916 79.5898 -27.5391 L 79.5898 -54.1016 C 79.5898 -61.1328 77.7344 -64.4531 71.2402 -67.1875 C 68.3594 -68.4082 55.6641 -72.3145 53.2227 -72.998 C 50.8301 -73.6816 47.7051 -74.1699 45.4102 -74.1699 C 43.1152 -74.1699 39.9902 -73.6816 37.5977 -72.998 C 35.1562 -72.3145 22.4609 -68.4082 19.5801 -67.1875 C 13.0859 -64.4531 11.2305 -61.1328 11.2305 -54.1016 L 11.2305 -27.5391 C 11.2305 -13.916 19.5312 -6.88477 42.1875 3.90625 C 43.2129 4.39453 44.4336 4.83398 45.4102 4.83398 Z M 31.5918 -23.4863 L 31.5918 -37.5 C 31.5918 -39.9414 32.4707 -41.4062 34.2285 -41.9922 L 34.2285 -45.459 C 34.2285 -52.7832 38.7695 -57.7637 45.4102 -57.7637 C 52.0996 -57.7637 56.6406 -52.7832 56.6406 -45.459 L 56.6406 -41.9434 C 58.3496 -41.4062 59.2285 -39.9414 59.2285 -37.5 L 59.2285 -23.4863 C 59.2285 -20.166 57.7148 -18.6523 54.6875 -18.6523 L 36.1816 -18.6523 C 33.1055 -18.6523 31.5918 -20.166 31.5918 -23.4863 Z M 41.4551 -42.2363 L 49.4141 -42.2363 L 49.4141 -45.6543 C 49.4141 -48.7793 47.9004 -50.6836 45.4102 -50.6836 C 42.9688 -50.6836 41.4551 -48.7305 41.4551 -45.6543 Z"/>
  </g>
  <g id="Heavy-S" transform="matrix(1 0 0 1 2590.96 696)">
   <path d="M 45.7031 4.54102 C 46.582 4.54102 47.7539 4.15039 48.7793 3.66211 C 71.2891 -7.22656 79.2969 -14.0137 79.2969 -27.7832 L 79.2969 -54.8828 C 79.2969 -61.1816 77.4414 -64.0137 71.7773 -66.4062 C 68.6523 -67.7246 55.2246 -72.0215 52.4414 -72.8516 C 50.3906 -73.4863 47.7539 -73.877 45.7031 -73.877 C 43.7012 -73.877 41.0645 -73.4375 38.9648 -72.8516 C 36.1816 -72.0703 22.7539 -67.7246 19.6289 -66.4062 C 13.9648 -64.0137 12.1094 -61.1816 12.1094 -54.8828 L 12.1094 -27.7832 C 12.1094 -14.0137 20.2637 -7.37305 42.6758 3.66211 C 43.7012 4.15039 44.8242 4.54102 45.7031 4.54102 Z M 32.0312 -23.0469 L 32.0312 -37.207 C 32.0312 -39.5996 32.9102 -41.0645 34.668 -41.5527 L 34.668 -45.2637 C 34.668 -52.5391 39.1602 -57.5195 45.7031 -57.5195 C 52.2949 -57.5195 56.7871 -52.5391 56.7871 -45.2637 L 56.7871 -41.5527 C 58.5449 -41.0645 59.4238 -39.6484 59.4238 -37.207 L 59.4238 -23.0469 C 59.4238 -19.873 57.959 -18.4082 55.0293 -18.4082 L 36.4258 -18.4082 C 33.4473 -18.4082 32.0312 -19.873 32.0312 -23.0469 Z M 41.2109 -41.7969 L 50.2441 -41.7969 L 50.2441 -45.5078 C 50.2441 -48.9258 48.4863 -51.0742 45.7031 -51.0742 C 42.9688 -51.0742 41.2109 -48.9258 41.2109 -45.5078 Z"/>
  </g>
  <g id="Bold-S" transform="matrix(1 0 0 1 2293.91 696)">
   <path d="M 46.0449 4.19922 C 46.8262 4.19922 47.9004 3.85742 48.9258 3.36914 C 71.2402 -7.56836 79.0039 -14.1602 79.0039 -28.0273 L 79.0039 -55.7617 C 79.0039 -61.2305 77.1484 -63.4766 72.3633 -65.5273 C 68.9941 -66.9434 54.7363 -71.7285 51.6113 -72.7051 C 49.9023 -73.2422 47.7539 -73.584 46.0449 -73.584 C 44.3359 -73.584 42.2363 -73.1934 40.5273 -72.7051 C 37.3535 -71.8262 23.1445 -66.9434 19.7266 -65.5273 C 14.9902 -63.5254 13.1348 -61.2305 13.1348 -55.7617 L 13.1348 -28.0273 C 13.1348 -14.1602 21.0938 -7.95898 43.1641 3.36914 C 44.2383 3.90625 45.3125 4.19922 46.0449 4.19922 Z M 32.4707 -22.5586 L 32.4707 -36.8652 C 32.4707 -39.2578 33.3496 -40.625 35.1562 -41.1133 L 35.1562 -45.0195 C 35.1562 -52.2949 39.5996 -57.2266 46.0449 -57.2266 C 52.5879 -57.2266 56.9824 -52.2949 56.9824 -45.0195 L 56.9824 -41.1133 C 58.7402 -40.6738 59.6191 -39.3066 59.6191 -36.8652 L 59.6191 -22.5586 C 59.6191 -19.5312 58.252 -18.1152 55.4199 -18.1152 L 36.7188 -18.1152 C 33.8867 -18.1152 32.4707 -19.5312 32.4707 -22.5586 Z M 40.9668 -41.2598 L 51.1719 -41.3086 L 51.1719 -45.3613 C 51.1719 -49.1211 49.1699 -51.5625 46.0449 -51.5625 C 42.9688 -51.5625 40.9668 -49.1211 40.9668 -45.3613 Z"/>
  </g>
  <g id="Semibold-S" transform="matrix(1 0 0 1 1996.98 696)">
   <path d="M 46.2891 3.95508 C 46.9727 3.95508 47.998 3.66211 49.0723 3.17383 C 71.2402 -7.8125 78.7598 -14.209 78.7598 -28.2227 L 78.7598 -56.3965 C 78.7598 -61.2793 76.9043 -63.1348 72.8027 -64.8926 C 69.2383 -66.4062 54.3945 -71.5332 50.9766 -72.6074 C 49.5117 -73.0957 47.8027 -73.3887 46.2891 -73.3887 C 44.8242 -73.3887 43.0664 -73.0469 41.6016 -72.6074 C 38.1836 -71.6309 23.3398 -66.4062 19.7754 -64.8926 C 15.6738 -63.1836 13.8184 -61.2793 13.8184 -56.3965 L 13.8184 -28.2227 C 13.8184 -14.209 21.6309 -8.34961 43.5547 3.17383 C 44.5801 3.71094 45.6055 3.95508 46.2891 3.95508 Z M 32.8125 -22.2168 L 32.8125 -36.6211 C 32.8125 -39.0137 33.6914 -40.332 35.498 -40.7715 L 35.498 -44.873 C 35.498 -52.1484 39.8926 -57.0312 46.2891 -57.0312 C 52.7344 -57.0312 57.0801 -52.1484 57.0801 -44.873 L 57.0801 -40.8203 C 58.8867 -40.3809 59.7656 -39.0625 59.7656 -36.6211 L 59.7656 -22.2168 C 59.7656 -19.2871 58.4473 -17.8711 55.7129 -17.8711 L 36.9141 -17.8711 C 34.1309 -17.8711 32.8125 -19.2871 32.8125 -22.2168 Z M 40.8203 -40.918 L 51.8066 -40.9668 L 51.8066 -45.2637 C 51.8066 -49.2676 49.6094 -51.8555 46.2891 -51.8555 C 42.9688 -51.8555 40.8203 -49.2676 40.8203 -45.2637 Z"/>
  </g>
  <g id="Medium-S" transform="matrix(1 0 0 1 1700.07 696)">
   <path d="M 46.4844 3.75977 C 47.1191 3.75977 48.0957 3.56445 49.1211 3.02734 C 71.2402 -8.00781 78.6133 -14.3066 78.6133 -28.3691 L 78.6133 -56.8359 C 78.6133 -61.2793 76.7578 -62.8906 73.0957 -64.4531 C 69.3848 -66.0156 54.1504 -71.3867 50.5371 -72.5586 C 49.2676 -72.9492 47.8027 -73.1934 46.4844 -73.1934 C 45.166 -73.1934 43.7012 -72.9004 42.4316 -72.5586 C 38.7695 -71.4844 23.5352 -65.9668 19.8242 -64.4531 C 16.2109 -62.9395 14.3555 -61.2793 14.3555 -56.8359 L 14.3555 -28.3691 C 14.3555 -14.3066 22.0703 -8.64258 43.7988 3.02734 C 44.873 3.56445 45.8496 3.75977 46.4844 3.75977 Z M 33.0566 -21.9727 L 33.0566 -36.4746 C 33.0566 -38.8184 33.9355 -40.1367 35.791 -40.5273 L 35.791 -44.7754 C 35.791 -52.002 40.0879 -56.8848 46.4844 -56.8848 C 52.8809 -56.8848 57.1777 -52.002 57.1777 -44.7754 L 57.1777 -40.5762 C 59.0332 -40.1855 59.8633 -38.8672 59.8633 -36.4746 L 59.8633 -21.9727 C 59.8633 -19.0918 58.5938 -17.7246 55.9082 -17.7246 L 37.0117 -17.7246 C 34.3262 -17.7246 33.0566 -19.0918 33.0566 -21.9727 Z M 40.6738 -40.6738 L 52.2949 -40.7227 L 52.2949 -45.2148 C 52.2949 -49.3652 49.9512 -52.0996 46.4844 -52.0996 C 42.9688 -52.0996 40.6738 -49.3652 40.6738 -45.2148 Z"/>
  </g>
  <g id="Regular-S" transform="matrix(1 0 0 1 1403.14 696)">
   <path d="M 46.7285 3.51562 C 47.2656 3.51562 48.1934 3.36914 49.2676 2.83203 C 71.1914 -8.25195 78.3691 -14.3555 78.3691 -28.5156 L 78.3691 -57.4219 C 78.3691 -61.3281 76.5137 -62.5488 73.5352 -63.8184 C 69.6289 -65.4785 53.8086 -71.1426 49.9512 -72.4609 C 48.9258 -72.8027 47.8027 -72.998 46.7285 -72.998 C 45.6055 -72.998 44.4824 -72.7539 43.457 -72.4609 C 39.5508 -71.2891 23.7793 -65.4297 19.873 -63.8184 C 16.8945 -62.5977 15.0391 -61.3281 15.0391 -57.4219 L 15.0391 -28.5156 C 15.0391 -14.3555 22.6562 -9.0332 44.1895 2.83203 C 45.2148 3.41797 46.1426 3.51562 46.7285 3.51562 Z M 33.3984 -21.6797 L 33.3984 -36.2305 C 33.3984 -38.5742 34.2285 -39.8438 36.1328 -40.2344 L 36.1328 -44.5801 C 36.1328 -51.8066 40.3809 -56.6406 46.7285 -56.6406 C 53.0273 -56.6406 57.3242 -51.8066 57.3242 -44.5801 L 57.3242 -40.2832 C 59.1797 -39.8926 60.0098 -38.623 60.0098 -36.2305 L 60.0098 -21.6797 C 60.0098 -18.8477 58.7891 -17.5293 56.2012 -17.5293 L 37.207 -17.5293 C 34.6191 -17.5293 33.3984 -18.8477 33.3984 -21.6797 Z M 40.5273 -40.332 L 52.8809 -40.3809 L 52.8809 -45.1172 C 52.8809 -49.5117 50.4395 -52.3926 46.7285 -52.3926 C 43.0176 -52.3926 40.5273 -49.5117 40.5273 -45.1172 Z"/>
  </g>
  <g id="Light-S" transform="matrix(1 0 0 1 1107.7 696)">
   <path d="M 45.459 3.27148 C 46.0938 3.27148 47.0703 2.97852 47.9492 2.49023 C 69.5801 -9.13086 76.416 -14.4531 76.416 -27.832 L 76.416 -56.6895 C 76.416 -60.6445 74.8535 -61.9629 71.4844 -63.3301 C 66.5527 -65.332 53.4668 -70.166 48.5352 -71.8262 C 47.5098 -72.168 46.4844 -72.4121 45.459 -72.4121 C 44.3848 -72.4121 43.3594 -72.168 42.3828 -71.8262 C 37.4023 -70.166 24.3164 -65.2832 19.3848 -63.3301 C 16.0645 -62.0117 14.4531 -60.6445 14.4531 -56.6895 L 14.4531 -27.832 C 14.4531 -14.4531 21.6797 -9.7168 42.9199 2.49023 C 43.8477 3.02734 44.7754 3.27148 45.459 3.27148 Z M 31.8848 -21.5332 L 31.8848 -36.6211 C 31.8848 -39.209 32.959 -40.5273 35.1074 -40.7715 L 35.1074 -45.5566 C 35.1074 -52.4902 39.3066 -57.0801 45.459 -57.0801 C 51.6113 -57.0801 55.7617 -52.4902 55.7617 -45.5566 L 55.7617 -40.8203 C 57.959 -40.5762 58.9844 -39.2578 58.9844 -36.6211 L 58.9844 -21.5332 C 58.9844 -18.6035 57.7148 -17.2852 54.9805 -17.2852 L 35.8887 -17.2852 C 33.2031 -17.2852 31.8848 -18.6035 31.8848 -21.5332 Z M 38.7695 -40.8203 L 52.1484 -40.8691 L 52.1484 -45.8984 C 52.1484 -50.4883 49.4629 -53.5645 45.459 -53.5645 C 41.4551 -53.5645 38.7695 -50.4883 38.7695 -45.8984 Z"/>
  </g>
  <g id="Thin-S" transform="matrix(1 0 0 1 812.648 696)">
   <path d="M 43.75 2.92969 C 44.5801 2.92969 45.5078 2.49023 46.2891 2.09961 C 67.3828 -10.2539 73.877 -14.5996 73.877 -26.9043 L 73.877 -55.6641 C 73.877 -59.8145 72.6074 -61.1816 68.7988 -62.6953 C 62.4512 -65.1367 53.0273 -68.7988 46.6309 -71.0449 C 45.6543 -71.3867 44.7266 -71.582 43.75 -71.582 C 42.7734 -71.582 41.8945 -71.3379 40.918 -71.0449 C 34.5703 -68.7012 25.0488 -65.1367 18.7012 -62.6953 C 14.8926 -61.2305 13.6719 -59.8145 13.6719 -55.6641 L 13.6719 -26.9043 C 13.6719 -14.5996 20.4102 -10.6934 41.2598 2.09961 C 41.9922 2.53906 42.9688 2.92969 43.75 2.92969 Z M 29.9316 -21.3867 L 29.9316 -37.1094 C 29.9316 -40.0391 31.2012 -41.4062 33.8379 -41.5039 L 33.8379 -46.8262 C 33.8379 -53.3203 37.8418 -57.6172 43.75 -57.6172 C 49.707 -57.6172 53.7109 -53.3203 53.7109 -46.8262 L 53.7109 -41.5039 C 56.3477 -41.4062 57.6172 -40.0391 57.6172 -37.1094 L 57.6172 -21.3867 C 57.6172 -18.3105 56.25 -16.9434 53.418 -16.9434 L 34.1309 -16.9434 C 31.2988 -16.9434 29.9316 -18.3105 29.9316 -21.3867 Z M 36.4258 -41.5039 L 51.123 -41.5039 L 51.123 -46.9727 C 51.123 -51.8555 48.1445 -55.0293 43.75 -55.0293 C 39.3555 -55.0293 36.4258 -51.8555 36.4258 -46.9727 Z"/>
  </g>
  <g id="Ultralight-S" transform="matrix(1 0 0 1 516.791 696)">
   <path d="M 42.9199 2.73438 C 43.7988 2.73438 44.7754 2.24609 45.4102 1.85547 C 66.2598 -10.8398 72.5586 -14.6973 72.5586 -26.416 L 72.5586 -55.127 C 72.5586 -59.375 71.4844 -60.791 67.4316 -62.3535 C 60.4004 -65.0391 52.7832 -68.1152 45.6543 -70.6055 C 44.6777 -70.9473 43.8477 -71.1914 42.9199 -71.1914 C 41.9922 -71.1914 41.1133 -70.9473 40.1367 -70.6055 C 33.1055 -67.9688 25.4395 -64.9902 18.3594 -62.3535 C 14.3555 -60.8398 13.2812 -59.375 13.2812 -55.127 L 13.2812 -26.416 C 13.2812 -14.6973 19.7754 -11.1816 40.4297 1.85547 C 41.0645 2.24609 42.041 2.73438 42.9199 2.73438 Z M 28.9551 -21.2891 L 28.9551 -37.3535 C 28.9551 -40.4785 30.3223 -41.8457 33.1543 -41.8457 L 33.1543 -47.5098 C 33.1543 -53.7598 37.0605 -57.9102 42.9199 -57.9102 C 48.7305 -57.9102 52.6855 -53.7598 52.6855 -47.5098 L 52.6855 -41.8457 C 55.5176 -41.8457 56.8848 -40.4785 56.8848 -37.3535 L 56.8848 -21.2891 C 56.8848 -18.1641 55.4688 -16.7969 52.6367 -16.7969 L 33.2031 -16.7969 C 30.3223 -16.7969 28.9551 -18.1641 28.9551 -21.2891 Z M 35.2051 -41.8457 L 50.5859 -41.8457 L 50.5859 -47.5098 C 50.5859 -52.5391 47.5098 -55.8105 42.9199 -55.8105 C 38.3301 -55.8105 35.2051 -52.5391 35.2051 -47.5098 Z"/>
  </g>
 </g>
</svg>
